<svg xmlns="http://www.w3.org/2000/svg" xmlns:xlink="http://www.w3.org/1999/xlink" width="63" zoomAndPan="magnify" viewBox="0 0 47.25 38.999999" height="52" preserveAspectRatio="xMidYMid meet" version="1.0"><defs><clipPath id="065a783af4"><path d="M 0 1 L 46.511719 1 L 46.511719 38.695312 L 0 38.695312 Z M 0 1 " clip-rule="nonzero"/></clipPath></defs><g clip-path="url(#065a783af4)"><path fill="#f5efe7" d="M 21.339844 33.433594 C 21.484375 33.589844 21.597656 33.769531 21.675781 33.972656 C 21.753906 34.171875 21.789062 34.382812 21.789062 34.597656 C 21.785156 34.8125 21.742188 35.019531 21.660156 35.222656 C 21.578125 35.421875 21.464844 35.597656 21.3125 35.753906 C 20.765625 36.355469 20.1875 36.929688 19.578125 37.46875 C 19.285156 37.675781 18.96875 37.84375 18.628906 37.964844 C 18.269531 37.996094 17.933594 37.925781 17.617188 37.753906 C 17.304688 37.582031 17.0625 37.335938 16.894531 37.019531 C 16.726562 36.738281 16.65625 36.4375 16.683594 36.113281 C 16.707031 35.789062 16.828125 35.503906 17.039062 35.257812 C 17.65625 34.539062 18.324219 33.867188 19.039062 33.25 C 19.203125 33.109375 19.390625 33.003906 19.597656 32.9375 C 19.800781 32.871094 20.011719 32.847656 20.226562 32.863281 C 20.445312 32.878906 20.648438 32.9375 20.839844 33.039062 C 21.035156 33.136719 21.199219 33.265625 21.339844 33.433594 Z M 10.242188 22.523438 C 10.09375 22.203125 9.871094 21.945312 9.578125 21.75 C 9.28125 21.558594 8.957031 21.457031 8.605469 21.449219 C 8.238281 21.574219 7.890625 21.746094 7.566406 21.960938 C 6.929688 22.527344 6.324219 23.125 5.757812 23.761719 C 5.601562 23.921875 5.488281 24.105469 5.40625 24.308594 C 5.328125 24.515625 5.289062 24.730469 5.296875 24.949219 C 5.304688 25.171875 5.351562 25.382812 5.445312 25.585938 C 5.535156 25.785156 5.664062 25.960938 5.824219 26.109375 C 5.976562 26.265625 6.152344 26.386719 6.351562 26.472656 C 6.550781 26.558594 6.757812 26.601562 6.972656 26.609375 C 7.191406 26.613281 7.398438 26.578125 7.601562 26.5 C 7.804688 26.425781 7.984375 26.3125 8.144531 26.167969 C 8.789062 25.582031 9.40625 24.964844 9.988281 24.316406 C 10.222656 24.078125 10.363281 23.792969 10.410156 23.460938 C 10.457031 23.128906 10.402344 22.816406 10.242188 22.519531 Z M 13.660156 25.769531 C 13.496094 25.617188 13.3125 25.503906 13.105469 25.425781 C 12.902344 25.347656 12.6875 25.308594 12.46875 25.3125 C 12.246094 25.316406 12.035156 25.359375 11.832031 25.441406 C 11.625 25.523438 11.445312 25.640625 11.285156 25.792969 C 10.683594 26.34375 10.113281 26.921875 9.574219 27.53125 C 9.375 27.804688 9.21875 28.105469 9.101562 28.425781 C 9.058594 28.792969 9.128906 29.140625 9.304688 29.464844 C 9.484375 29.792969 9.738281 30.035156 10.070312 30.199219 C 10.371094 30.363281 10.695312 30.425781 11.035156 30.382812 C 11.378906 30.339844 11.675781 30.199219 11.925781 29.960938 C 12.554688 29.390625 13.164062 28.792969 13.738281 28.164062 C 13.894531 28.003906 14.015625 27.816406 14.097656 27.605469 C 14.179688 27.394531 14.21875 27.175781 14.210938 26.949219 C 14.203125 26.722656 14.152344 26.507812 14.054688 26.300781 C 13.960938 26.09375 13.828125 25.917969 13.660156 25.765625 Z M 18.015625 31.035156 C 17.949219 30.105469 17.652344 29.550781 16.976562 29.246094 C 16.65625 29.089844 16.324219 29.042969 15.976562 29.105469 C 15.628906 29.167969 15.332031 29.328125 15.085938 29.582031 C 14.515625 30.109375 13.96875 30.664062 13.4375 31.226562 C 13.269531 31.382812 13.136719 31.566406 13.042969 31.777344 C 12.953125 31.988281 12.902344 32.210938 12.898438 32.441406 C 12.894531 32.671875 12.9375 32.894531 13.023438 33.105469 C 13.109375 33.320312 13.234375 33.507812 13.398438 33.671875 C 13.5625 33.835938 13.75 33.957031 13.964844 34.046875 C 14.179688 34.132812 14.402344 34.175781 14.632812 34.171875 C 14.863281 34.167969 15.082031 34.121094 15.296875 34.03125 C 15.507812 33.9375 15.691406 33.808594 15.851562 33.644531 C 16.414062 33.136719 16.949219 32.597656 17.453125 32.03125 C 17.679688 31.722656 17.867188 31.390625 18.015625 31.035156 Z M 43.601562 6.457031 C 43.257812 5.964844 42.878906 5.5 42.464844 5.070312 C 42.050781 4.625 41.609375 4.214844 41.132812 3.835938 C 40.511719 3.359375 39.84375 2.957031 39.128906 2.636719 C 37.179688 1.722656 35.132812 1.238281 32.980469 1.175781 C 30.785156 1.230469 28.722656 1.785156 26.796875 2.839844 C 25.265625 3.746094 23.910156 4.863281 22.726562 6.1875 C 20.9375 7.988281 19.121094 9.765625 17.332031 11.570312 C 17.210938 11.683594 17.105469 11.808594 17.011719 11.941406 C 16.917969 12.078125 16.84375 12.222656 16.78125 12.375 C 16.71875 12.527344 16.675781 12.6875 16.652344 12.847656 C 16.625 13.011719 16.617188 13.175781 16.628906 13.339844 C 16.640625 13.503906 16.667969 13.664062 16.714844 13.824219 C 16.761719 13.980469 16.824219 14.128906 16.90625 14.273438 C 16.988281 14.417969 17.082031 14.550781 17.191406 14.671875 C 17.300781 14.796875 17.425781 14.90625 17.558594 15 C 17.765625 15.152344 17.996094 15.265625 18.242188 15.339844 C 18.492188 15.410156 18.746094 15.4375 19.003906 15.421875 C 19.261719 15.402344 19.507812 15.34375 19.746094 15.238281 C 19.980469 15.132812 20.191406 14.988281 20.378906 14.808594 C 21.214844 14.023438 25.429688 9.917969 26.640625 8.703125 C 32.996094 15 37.648438 19.648438 38.769531 20.792969 C 39.546875 21.59375 40.261719 22.339844 40.261719 22.339844 C 40.765625 22.863281 41.273438 23.402344 41.808594 23.960938 C 42.167969 23.503906 42.570312 23.050781 42.960938 22.578125 C 43.355469 22.101562 43.722656 21.605469 44.0625 21.089844 C 45.230469 19.226562 45.914062 17.203125 46.117188 15.015625 C 46.265625 12.605469 45.769531 10.335938 44.628906 8.210938 C 44.324219 7.601562 43.980469 7.019531 43.601562 6.457031 Z M 26.636719 11.402344 C 24.878906 13.109375 22.15625 15.78125 21.476562 16.375 C 21.082031 16.703125 20.644531 16.949219 20.160156 17.113281 C 19.671875 17.277344 19.175781 17.351562 18.660156 17.328125 C 18.148438 17.308594 17.660156 17.195312 17.1875 16.992188 C 16.71875 16.789062 16.296875 16.511719 15.933594 16.152344 C 15.566406 15.792969 15.273438 15.378906 15.0625 14.914062 C 14.851562 14.445312 14.730469 13.957031 14.703125 13.445312 C 14.675781 12.933594 14.742188 12.433594 14.902344 11.945312 C 15.0625 11.457031 15.304688 11.015625 15.628906 10.621094 C 16.164062 9.984375 16.773438 9.40625 17.367188 8.816406 C 18.832031 7.34375 20.3125 5.871094 21.820312 4.367188 C 20.996094 3.625 20.085938 3 19.09375 2.5 C 18.101562 1.996094 17.0625 1.632812 15.976562 1.40625 C 14.886719 1.179688 13.789062 1.101562 12.679688 1.167969 C 11.570312 1.234375 10.488281 1.441406 9.433594 1.796875 C 4.144531 3.59375 1.078125 7.371094 0.453125 12.933594 C 0.347656 13.828125 0.339844 14.722656 0.429688 15.621094 C 0.523438 16.515625 0.710938 17.394531 0.996094 18.25 C 1.277344 19.101562 1.652344 19.917969 2.117188 20.691406 C 2.582031 21.460938 3.125 22.175781 3.746094 22.828125 C 4.605469 22.042969 5.394531 21.304688 6.199219 20.585938 C 6.40625 20.386719 6.636719 20.214844 6.886719 20.070312 C 7.136719 19.929688 7.402344 19.816406 7.679688 19.734375 C 7.953125 19.65625 8.238281 19.609375 8.527344 19.59375 C 8.8125 19.582031 9.101562 19.605469 9.382812 19.660156 C 9.664062 19.714844 9.9375 19.804688 10.199219 19.925781 C 10.460938 20.046875 10.703125 20.199219 10.929688 20.378906 C 11.15625 20.558594 11.355469 20.761719 11.53125 20.992188 C 11.710938 21.21875 11.855469 21.464844 11.972656 21.730469 C 12.175781 22.257812 12.328125 22.796875 12.4375 23.351562 C 14.71875 23.550781 15.960938 24.828125 16.164062 27.128906 C 18.503906 27.339844 19.769531 28.605469 19.957031 30.898438 C 20.023438 30.917969 20.089844 30.933594 20.160156 30.945312 C 20.4375 30.953125 20.710938 30.992188 20.980469 31.0625 C 21.25 31.132812 21.507812 31.234375 21.753906 31.363281 C 22.003906 31.492188 22.230469 31.648438 22.441406 31.828125 C 22.652344 32.011719 22.84375 32.214844 23.007812 32.4375 C 23.171875 32.664062 23.308594 32.902344 23.417969 33.160156 C 23.527344 33.417969 23.609375 33.683594 23.65625 33.957031 C 23.707031 34.230469 23.722656 34.507812 23.710938 34.785156 C 23.695312 35.0625 23.652344 35.335938 23.574219 35.605469 C 23.539062 35.773438 23.570312 35.921875 23.675781 36.058594 C 24.351562 36.75 25.023438 37.449219 25.746094 38.089844 C 26.050781 38.328125 26.394531 38.445312 26.777344 38.441406 C 27.164062 38.4375 27.503906 38.3125 27.800781 38.066406 C 28.007812 37.910156 28.171875 37.710938 28.289062 37.480469 C 28.40625 37.246094 28.464844 37 28.472656 36.738281 C 28.476562 36.476562 28.421875 36.226562 28.3125 35.992188 C 28.203125 35.753906 28.050781 35.550781 27.847656 35.386719 C 26.144531 33.683594 24.4375 31.988281 22.734375 30.28125 C 22.660156 30.207031 22.589844 30.125 22.53125 30.035156 L 19.570312 27.074219 C 19.394531 26.894531 19.308594 26.675781 19.308594 26.421875 C 19.3125 26.167969 19.402344 25.953125 19.582031 25.773438 C 19.761719 25.59375 19.976562 25.503906 20.230469 25.5 C 20.484375 25.496094 20.703125 25.585938 20.886719 25.761719 L 23.863281 28.738281 C 23.941406 28.792969 24.019531 28.855469 24.089844 28.921875 C 24.625 29.429688 25.164062 29.9375 25.6875 30.457031 C 26.917969 31.671875 28.125 32.902344 29.367188 34.101562 C 29.535156 34.273438 29.730469 34.40625 29.953125 34.496094 C 30.175781 34.585938 30.410156 34.625 30.648438 34.617188 C 30.890625 34.609375 31.117188 34.550781 31.335938 34.445312 C 31.550781 34.339844 31.738281 34.195312 31.890625 34.007812 C 32.035156 33.835938 32.140625 33.640625 32.207031 33.425781 C 32.273438 33.210938 32.296875 32.988281 32.28125 32.765625 C 32.261719 32.539062 32.203125 32.328125 32.101562 32.125 C 32 31.921875 31.867188 31.746094 31.699219 31.597656 C 29.964844 29.847656 28.210938 28.113281 26.464844 26.371094 C 25.632812 25.539062 24.792969 24.71875 23.980469 23.867188 C 23.886719 23.78125 23.816406 23.683594 23.765625 23.566406 C 23.714844 23.453125 23.6875 23.332031 23.6875 23.207031 C 23.6875 23.082031 23.710938 22.960938 23.761719 22.84375 C 23.808594 22.730469 23.878906 22.628906 23.972656 22.542969 C 24.15625 22.359375 24.375 22.265625 24.636719 22.261719 C 24.898438 22.253906 25.121094 22.34375 25.3125 22.519531 C 25.429688 22.617188 25.539062 22.71875 25.640625 22.832031 C 28.113281 25.292969 30.582031 27.761719 33.066406 30.207031 C 33.339844 30.476562 33.65625 30.660156 34.023438 30.765625 C 34.386719 30.859375 34.742188 30.828125 35.085938 30.679688 C 35.429688 30.53125 35.691406 30.292969 35.871094 29.964844 C 36.0625 29.628906 36.128906 29.273438 36.078125 28.894531 C 36.027344 28.511719 35.863281 28.1875 35.59375 27.917969 C 33.699219 26.003906 31.789062 24.109375 29.882812 22.203125 C 29.199219 21.523438 28.5 20.851562 27.832031 20.15625 C 27.730469 20.070312 27.652344 19.96875 27.59375 19.851562 C 27.535156 19.734375 27.503906 19.613281 27.496094 19.480469 C 27.488281 19.351562 27.503906 19.222656 27.546875 19.101562 C 27.59375 18.976562 27.65625 18.867188 27.746094 18.773438 C 27.839844 18.675781 27.949219 18.605469 28.074219 18.550781 C 28.199219 18.5 28.332031 18.476562 28.464844 18.476562 C 28.597656 18.480469 28.730469 18.507812 28.851562 18.558594 C 28.976562 18.613281 29.085938 18.6875 29.179688 18.785156 C 29.265625 18.859375 29.339844 18.945312 29.417969 19.027344 C 31.875 21.476562 34.335938 23.925781 36.792969 26.375 C 37.035156 26.652344 37.335938 26.84375 37.6875 26.949219 C 38.042969 27.050781 38.398438 27.050781 38.753906 26.945312 L 38.800781 26.929688 C 38.941406 26.871094 39.070312 26.800781 39.1875 26.710938 C 39.308594 26.621094 39.414062 26.515625 39.507812 26.398438 C 39.601562 26.28125 39.679688 26.152344 39.738281 26.015625 C 39.796875 25.878906 39.839844 25.734375 39.863281 25.585938 C 39.886719 25.4375 39.886719 25.289062 39.871094 25.140625 C 39.855469 24.992188 39.824219 24.847656 39.769531 24.707031 C 39.714844 24.566406 39.644531 24.4375 39.558594 24.3125 C 39.46875 24.191406 39.367188 24.082031 39.253906 23.988281 C 36.472656 21.203125 30.191406 14.933594 26.636719 11.402344 Z M 26.636719 11.402344 " fill-opacity="1" fill-rule="nonzero"/><path fill="#f5efe7" d="M 21.339844 33.433594 C 21.484375 33.589844 21.597656 33.769531 21.675781 33.972656 C 21.753906 34.171875 21.789062 34.382812 21.789062 34.597656 C 21.785156 34.8125 21.742188 35.019531 21.660156 35.222656 C 21.578125 35.421875 21.464844 35.597656 21.3125 35.753906 C 20.765625 36.355469 20.1875 36.929688 19.578125 37.46875 C 19.285156 37.675781 18.96875 37.84375 18.628906 37.964844 C 18.269531 37.996094 17.933594 37.925781 17.617188 37.753906 C 17.304688 37.582031 17.0625 37.335938 16.894531 37.019531 C 16.726562 36.738281 16.65625 36.4375 16.683594 36.113281 C 16.707031 35.789062 16.828125 35.503906 17.039062 35.257812 C 17.65625 34.539062 18.324219 33.867188 19.039062 33.25 C 19.203125 33.109375 19.390625 33.003906 19.597656 32.9375 C 19.800781 32.871094 20.011719 32.847656 20.226562 32.863281 C 20.445312 32.878906 20.648438 32.9375 20.839844 33.039062 C 21.035156 33.136719 21.199219 33.265625 21.339844 33.433594 Z M 10.242188 22.523438 C 10.09375 22.203125 9.871094 21.945312 9.578125 21.75 C 9.28125 21.558594 8.957031 21.457031 8.605469 21.449219 C 8.238281 21.574219 7.890625 21.746094 7.566406 21.960938 C 6.929688 22.527344 6.324219 23.125 5.757812 23.761719 C 5.601562 23.921875 5.488281 24.105469 5.40625 24.308594 C 5.328125 24.515625 5.289062 24.730469 5.296875 24.949219 C 5.304688 25.171875 5.351562 25.382812 5.445312 25.585938 C 5.535156 25.785156 5.664062 25.960938 5.824219 26.109375 C 5.976562 26.265625 6.152344 26.386719 6.351562 26.472656 C 6.550781 26.558594 6.757812 26.601562 6.972656 26.609375 C 7.191406 26.613281 7.398438 26.578125 7.601562 26.5 C 7.804688 26.425781 7.984375 26.3125 8.144531 26.167969 C 8.789062 25.582031 9.40625 24.964844 9.988281 24.316406 C 10.222656 24.078125 10.363281 23.792969 10.410156 23.460938 C 10.457031 23.128906 10.402344 22.816406 10.242188 22.519531 Z M 13.660156 25.769531 C 13.496094 25.617188 13.3125 25.503906 13.105469 25.425781 C 12.902344 25.347656 12.6875 25.308594 12.46875 25.3125 C 12.246094 25.316406 12.035156 25.359375 11.832031 25.441406 C 11.625 25.523438 11.445312 25.640625 11.285156 25.792969 C 10.683594 26.34375 10.113281 26.921875 9.574219 27.53125 C 9.375 27.804688 9.21875 28.105469 9.101562 28.425781 C 9.058594 28.792969 9.128906 29.140625 9.304688 29.464844 C 9.484375 29.792969 9.738281 30.035156 10.070312 30.199219 C 10.371094 30.363281 10.695312 30.425781 11.035156 30.382812 C 11.378906 30.339844 11.675781 30.199219 11.925781 29.960938 C 12.554688 29.390625 13.164062 28.792969 13.738281 28.164062 C 13.894531 28.003906 14.015625 27.816406 14.097656 27.605469 C 14.179688 27.394531 14.21875 27.175781 14.210938 26.949219 C 14.203125 26.722656 14.152344 26.507812 14.054688 26.300781 C 13.960938 26.09375 13.828125 25.917969 13.660156 25.765625 Z M 18.015625 31.035156 C 17.949219 30.105469 17.652344 29.550781 16.976562 29.246094 C 16.65625 29.089844 16.324219 29.042969 15.976562 29.105469 C 15.628906 29.167969 15.332031 29.328125 15.085938 29.582031 C 14.515625 30.109375 13.96875 30.664062 13.4375 31.226562 C 13.269531 31.382812 13.136719 31.566406 13.042969 31.777344 C 12.953125 31.988281 12.902344 32.210938 12.898438 32.441406 C 12.894531 32.671875 12.9375 32.894531 13.023438 33.105469 C 13.109375 33.320312 13.234375 33.507812 13.398438 33.671875 C 13.5625 33.835938 13.75 33.957031 13.964844 34.046875 C 14.179688 34.132812 14.402344 34.175781 14.632812 34.171875 C 14.863281 34.167969 15.082031 34.121094 15.296875 34.03125 C 15.507812 33.9375 15.691406 33.808594 15.851562 33.644531 C 16.414062 33.136719 16.949219 32.597656 17.453125 32.03125 C 17.679688 31.722656 17.867188 31.390625 18.015625 31.035156 Z M 43.601562 6.457031 C 43.257812 5.964844 42.878906 5.5 42.464844 5.070312 C 42.050781 4.625 41.609375 4.214844 41.132812 3.835938 C 40.511719 3.359375 39.84375 2.957031 39.128906 2.636719 C 37.179688 1.722656 35.132812 1.238281 32.980469 1.175781 C 30.785156 1.230469 28.722656 1.785156 26.796875 2.839844 C 25.265625 3.746094 23.910156 4.863281 22.726562 6.1875 C 20.9375 7.988281 19.121094 9.765625 17.332031 11.570312 C 17.210938 11.683594 17.105469 11.808594 17.011719 11.941406 C 16.917969 12.078125 16.84375 12.222656 16.78125 12.375 C 16.71875 12.527344 16.675781 12.6875 16.652344 12.847656 C 16.625 13.011719 16.617188 13.175781 16.628906 13.339844 C 16.640625 13.503906 16.667969 13.664062 16.714844 13.824219 C 16.761719 13.980469 16.824219 14.128906 16.90625 14.273438 C 16.988281 14.417969 17.082031 14.550781 17.191406 14.671875 C 17.300781 14.796875 17.425781 14.90625 17.558594 15 C 17.765625 15.152344 17.996094 15.265625 18.242188 15.339844 C 18.492188 15.410156 18.746094 15.4375 19.003906 15.421875 C 19.261719 15.402344 19.507812 15.34375 19.746094 15.238281 C 19.980469 15.132812 20.191406 14.988281 20.378906 14.808594 C 21.214844 14.023438 25.429688 9.917969 26.640625 8.703125 C 32.996094 15 37.648438 19.648438 38.769531 20.792969 C 39.546875 21.59375 40.261719 22.339844 40.261719 22.339844 C 40.765625 22.863281 41.273438 23.402344 41.808594 23.960938 C 42.167969 23.503906 42.570312 23.050781 42.960938 22.578125 C 43.355469 22.101562 43.722656 21.605469 44.0625 21.089844 C 45.230469 19.226562 45.914062 17.203125 46.117188 15.015625 C 46.265625 12.605469 45.769531 10.335938 44.628906 8.210938 C 44.324219 7.601562 43.980469 7.019531 43.601562 6.457031 Z M 26.636719 11.402344 C 24.878906 13.109375 22.15625 15.78125 21.476562 16.375 C 21.082031 16.703125 20.644531 16.949219 20.160156 17.113281 C 19.671875 17.277344 19.175781 17.351562 18.660156 17.328125 C 18.148438 17.308594 17.660156 17.195312 17.1875 16.992188 C 16.71875 16.789062 16.296875 16.511719 15.933594 16.152344 C 15.566406 15.792969 15.273438 15.378906 15.0625 14.914062 C 14.851562 14.445312 14.730469 13.957031 14.703125 13.445312 C 14.675781 12.933594 14.742188 12.433594 14.902344 11.945312 C 15.0625 11.457031 15.304688 11.015625 15.628906 10.621094 C 16.164062 9.984375 16.773438 9.40625 17.367188 8.816406 C 18.832031 7.34375 20.3125 5.871094 21.820312 4.367188 C 20.996094 3.625 20.085938 3 19.09375 2.5 C 18.101562 1.996094 17.0625 1.632812 15.976562 1.40625 C 14.886719 1.179688 13.789062 1.101562 12.679688 1.167969 C 11.570312 1.234375 10.488281 1.441406 9.433594 1.796875 C 4.144531 3.59375 1.078125 7.371094 0.453125 12.933594 C 0.347656 13.828125 0.339844 14.722656 0.429688 15.621094 C 0.523438 16.515625 0.710938 17.394531 0.996094 18.25 C 1.277344 19.101562 1.652344 19.917969 2.117188 20.691406 C 2.582031 21.460938 3.125 22.175781 3.746094 22.828125 C 4.605469 22.042969 5.394531 21.304688 6.199219 20.585938 C 6.40625 20.386719 6.636719 20.214844 6.886719 20.070312 C 7.136719 19.929688 7.402344 19.816406 7.679688 19.734375 C 7.953125 19.65625 8.238281 19.609375 8.527344 19.59375 C 8.8125 19.582031 9.101562 19.605469 9.382812 19.660156 C 9.664062 19.714844 9.9375 19.804688 10.199219 19.925781 C 10.460938 20.046875 10.703125 20.199219 10.929688 20.378906 C 11.15625 20.558594 11.355469 20.761719 11.53125 20.992188 C 11.710938 21.21875 11.855469 21.464844 11.972656 21.730469 C 12.175781 22.257812 12.328125 22.796875 12.4375 23.351562 C 14.71875 23.550781 15.960938 24.828125 16.164062 27.128906 C 18.503906 27.339844 19.769531 28.605469 19.957031 30.898438 C 20.023438 30.917969 20.089844 30.933594 20.160156 30.945312 C 20.4375 30.953125 20.710938 30.992188 20.980469 31.0625 C 21.25 31.132812 21.507812 31.234375 21.753906 31.363281 C 22.003906 31.492188 22.230469 31.648438 22.441406 31.828125 C 22.652344 32.011719 22.84375 32.214844 23.007812 32.4375 C 23.171875 32.664062 23.308594 32.902344 23.417969 33.160156 C 23.527344 33.417969 23.609375 33.683594 23.65625 33.957031 C 23.707031 34.230469 23.722656 34.507812 23.710938 34.785156 C 23.695312 35.0625 23.652344 35.335938 23.574219 35.605469 C 23.539062 35.773438 23.570312 35.921875 23.675781 36.058594 C 24.351562 36.75 25.023438 37.449219 25.746094 38.089844 C 26.050781 38.328125 26.394531 38.445312 26.777344 38.441406 C 27.164062 38.4375 27.503906 38.3125 27.800781 38.066406 C 28.007812 37.910156 28.171875 37.710938 28.289062 37.480469 C 28.40625 37.246094 28.464844 37 28.472656 36.738281 C 28.476562 36.476562 28.421875 36.226562 28.3125 35.992188 C 28.203125 35.753906 28.050781 35.550781 27.847656 35.386719 C 26.144531 33.683594 24.4375 31.988281 22.734375 30.28125 C 22.660156 30.207031 22.589844 30.125 22.53125 30.035156 L 19.570312 27.074219 C 19.394531 26.894531 19.308594 26.675781 19.308594 26.421875 C 19.3125 26.167969 19.402344 25.953125 19.582031 25.773438 C 19.761719 25.59375 19.976562 25.503906 20.230469 25.5 C 20.484375 25.496094 20.703125 25.585938 20.886719 25.761719 L 23.863281 28.738281 C 23.941406 28.792969 24.019531 28.855469 24.089844 28.921875 C 24.625 29.429688 25.164062 29.9375 25.6875 30.457031 C 26.917969 31.671875 28.125 32.902344 29.367188 34.101562 C 29.535156 34.273438 29.730469 34.40625 29.953125 34.496094 C 30.175781 34.585938 30.410156 34.625 30.648438 34.617188 C 30.890625 34.609375 31.117188 34.550781 31.335938 34.445312 C 31.550781 34.339844 31.738281 34.195312 31.890625 34.007812 C 32.035156 33.835938 32.140625 33.640625 32.207031 33.425781 C 32.273438 33.210938 32.296875 32.988281 32.28125 32.765625 C 32.261719 32.539062 32.203125 32.328125 32.101562 32.125 C 32 31.921875 31.867188 31.746094 31.699219 31.597656 C 29.964844 29.847656 28.210938 28.113281 26.464844 26.371094 C 25.632812 25.539062 24.792969 24.71875 23.980469 23.867188 C 23.886719 23.78125 23.816406 23.683594 23.765625 23.566406 C 23.714844 23.453125 23.6875 23.332031 23.6875 23.207031 C 23.6875 23.082031 23.710938 22.960938 23.761719 22.84375 C 23.808594 22.730469 23.878906 22.628906 23.972656 22.542969 C 24.15625 22.359375 24.375 22.265625 24.636719 22.261719 C 24.898438 22.253906 25.121094 22.34375 25.3125 22.519531 C 25.429688 22.617188 25.539062 22.71875 25.640625 22.832031 C 28.113281 25.292969 30.582031 27.761719 33.066406 30.207031 C 33.339844 30.476562 33.65625 30.660156 34.023438 30.765625 C 34.386719 30.859375 34.742188 30.828125 35.085938 30.679688 C 35.429688 30.53125 35.691406 30.292969 35.871094 29.964844 C 36.0625 29.628906 36.128906 29.273438 36.078125 28.894531 C 36.027344 28.511719 35.863281 28.1875 35.59375 27.917969 C 33.699219 26.003906 31.789062 24.109375 29.882812 22.203125 C 29.199219 21.523438 28.5 20.851562 27.832031 20.15625 C 27.730469 20.070312 27.652344 19.96875 27.59375 19.851562 C 27.535156 19.734375 27.503906 19.613281 27.496094 19.480469 C 27.488281 19.351562 27.503906 19.222656 27.546875 19.101562 C 27.59375 18.976562 27.65625 18.867188 27.746094 18.773438 C 27.839844 18.675781 27.949219 18.605469 28.074219 18.550781 C 28.199219 18.5 28.332031 18.476562 28.464844 18.476562 C 28.597656 18.480469 28.730469 18.507812 28.851562 18.558594 C 28.976562 18.613281 29.085938 18.6875 29.179688 18.785156 C 29.265625 18.859375 29.339844 18.945312 29.417969 19.027344 C 31.875 21.476562 34.335938 23.925781 36.792969 26.375 C 37.035156 26.652344 37.335938 26.84375 37.6875 26.949219 C 38.042969 27.050781 38.398438 27.050781 38.753906 26.945312 L 38.800781 26.929688 C 38.941406 26.871094 39.070312 26.800781 39.1875 26.710938 C 39.308594 26.621094 39.414062 26.515625 39.507812 26.398438 C 39.601562 26.28125 39.679688 26.152344 39.738281 26.015625 C 39.796875 25.878906 39.839844 25.734375 39.863281 25.585938 C 39.886719 25.4375 39.886719 25.289062 39.871094 25.140625 C 39.855469 24.992188 39.824219 24.847656 39.769531 24.707031 C 39.714844 24.566406 39.644531 24.4375 39.558594 24.3125 C 39.46875 24.191406 39.367188 24.082031 39.253906 23.988281 C 36.472656 21.203125 30.191406 14.933594 26.636719 11.402344 Z M 26.636719 11.402344 " fill-opacity="1" fill-rule="nonzero"/></g></svg>