<svg xmlns="http://www.w3.org/2000/svg" xmlns:xlink="http://www.w3.org/1999/xlink" width="241" zoomAndPan="magnify" viewBox="0 0 180.75 58.499998" height="78" preserveAspectRatio="xMidYMid meet" version="1.0"><defs><g/><clipPath id="9c021f9fe0"><path d="M 0.640625 3 L 146 3 L 146 54 L 0.640625 54 Z M 0.640625 3 " clip-rule="nonzero"/></clipPath><clipPath id="8b71128b2f"><path d="M 1 10 L 47.558594 10 L 47.558594 48 L 1 48 Z M 1 10 " clip-rule="nonzero"/></clipPath><clipPath id="40505f172e"><path d="M 59 0.09375 L 145.085938 0.09375 L 145.085938 50.542969 L 59 50.542969 Z M 59 0.09375 " clip-rule="nonzero"/></clipPath><clipPath id="e1cef322c2"><rect x="0" width="87" y="0" height="51"/></clipPath><clipPath id="6b24291d3b"><rect x="0" width="146" y="0" height="51"/></clipPath></defs><g clip-path="url(#9c021f9fe0)"><g transform="matrix(1, 0, 0, 1, 0, 3)"><g clip-path="url(#6b24291d3b)"><g clip-path="url(#8b71128b2f)"><path fill="#f5efe7" d="M 22.132812 42.605469 C 22.28125 42.765625 22.394531 42.949219 22.472656 43.148438 C 22.550781 43.351562 22.585938 43.5625 22.585938 43.78125 C 22.582031 43.996094 22.539062 44.207031 22.457031 44.40625 C 22.375 44.609375 22.257812 44.789062 22.105469 44.945312 C 21.554688 45.550781 20.972656 46.128906 20.359375 46.671875 C 20.0625 46.882812 19.746094 47.046875 19.402344 47.171875 C 19.042969 47.203125 18.703125 47.132812 18.386719 46.957031 C 18.066406 46.785156 17.824219 46.539062 17.65625 46.21875 C 17.488281 45.9375 17.414062 45.632812 17.441406 45.308594 C 17.46875 44.980469 17.589844 44.691406 17.800781 44.441406 C 18.425781 43.71875 19.097656 43.046875 19.816406 42.421875 C 19.984375 42.28125 20.167969 42.175781 20.375 42.109375 C 20.585938 42.039062 20.796875 42.015625 21.011719 42.035156 C 21.230469 42.050781 21.4375 42.109375 21.628906 42.207031 C 21.824219 42.308594 21.992188 42.441406 22.132812 42.605469 Z M 10.957031 31.617188 C 10.808594 31.296875 10.582031 31.039062 10.285156 30.84375 C 9.988281 30.648438 9.664062 30.546875 9.308594 30.539062 C 8.9375 30.664062 8.589844 30.835938 8.265625 31.054688 C 7.621094 31.621094 7.011719 32.226562 6.441406 32.867188 C 6.285156 33.027344 6.167969 33.210938 6.085938 33.417969 C 6.007812 33.628906 5.96875 33.84375 5.976562 34.066406 C 5.980469 34.289062 6.03125 34.5 6.125 34.703125 C 6.214844 34.90625 6.34375 35.082031 6.507812 35.234375 C 6.660156 35.386719 6.839844 35.507812 7.039062 35.597656 C 7.238281 35.683594 7.445312 35.726562 7.664062 35.734375 C 7.882812 35.738281 8.09375 35.703125 8.296875 35.625 C 8.5 35.550781 8.683594 35.4375 8.84375 35.289062 C 9.496094 34.699219 10.113281 34.078125 10.703125 33.429688 C 10.9375 33.1875 11.078125 32.898438 11.125 32.566406 C 11.175781 32.230469 11.117188 31.914062 10.957031 31.617188 Z M 14.398438 34.886719 C 14.234375 34.738281 14.046875 34.621094 13.839844 34.542969 C 13.632812 34.464844 13.417969 34.425781 13.199219 34.429688 C 12.976562 34.429688 12.761719 34.472656 12.554688 34.558594 C 12.351562 34.640625 12.167969 34.761719 12.007812 34.914062 C 11.402344 35.464844 10.828125 36.046875 10.28125 36.664062 C 10.082031 36.941406 9.925781 37.242188 9.808594 37.5625 C 9.765625 37.933594 9.835938 38.285156 10.011719 38.613281 C 10.191406 38.941406 10.449219 39.1875 10.785156 39.351562 C 11.089844 39.515625 11.414062 39.578125 11.757812 39.535156 C 12.101562 39.488281 12.398438 39.347656 12.652344 39.113281 C 13.285156 38.539062 13.898438 37.933594 14.476562 37.300781 C 14.636719 37.140625 14.757812 36.949219 14.839844 36.738281 C 14.925781 36.527344 14.960938 36.304688 14.953125 36.078125 C 14.945312 35.847656 14.894531 35.632812 14.796875 35.425781 C 14.703125 35.21875 14.566406 35.039062 14.398438 34.886719 Z M 18.785156 40.195312 C 18.71875 39.257812 18.417969 38.695312 17.738281 38.390625 C 17.417969 38.234375 17.082031 38.1875 16.730469 38.25 C 16.378906 38.3125 16.082031 38.472656 15.835938 38.730469 C 15.261719 39.257812 14.710938 39.820312 14.171875 40.382812 C 14.003906 40.542969 13.871094 40.730469 13.777344 40.941406 C 13.683594 41.152344 13.636719 41.375 13.632812 41.609375 C 13.628906 41.839844 13.671875 42.0625 13.757812 42.277344 C 13.847656 42.496094 13.972656 42.683594 14.136719 42.847656 C 14.300781 43.011719 14.492188 43.136719 14.707031 43.222656 C 14.921875 43.3125 15.144531 43.351562 15.378906 43.351562 C 15.609375 43.347656 15.832031 43.300781 16.046875 43.207031 C 16.257812 43.117188 16.445312 42.988281 16.609375 42.820312 C 17.175781 42.308594 17.710938 41.765625 18.21875 41.195312 C 18.445312 40.882812 18.636719 40.550781 18.785156 40.191406 Z M 44.550781 15.441406 C 44.207031 14.945312 43.828125 14.476562 43.40625 14.042969 C 42.992188 13.59375 42.546875 13.179688 42.066406 12.800781 C 41.441406 12.320312 40.769531 11.914062 40.050781 11.589844 C 38.085938 10.671875 36.023438 10.183594 33.855469 10.121094 C 31.644531 10.175781 29.566406 10.734375 27.628906 11.796875 C 26.085938 12.710938 24.722656 13.835938 23.53125 15.167969 C 21.726562 16.984375 19.898438 18.773438 18.097656 20.589844 C 17.976562 20.703125 17.867188 20.828125 17.773438 20.964844 C 17.679688 21.101562 17.605469 21.246094 17.542969 21.402344 C 17.480469 21.554688 17.4375 21.714844 17.410156 21.878906 C 17.386719 22.042969 17.378906 22.207031 17.390625 22.371094 C 17.398438 22.535156 17.429688 22.699219 17.476562 22.855469 C 17.523438 23.015625 17.585938 23.167969 17.667969 23.3125 C 17.75 23.457031 17.84375 23.589844 17.957031 23.714844 C 18.066406 23.835938 18.1875 23.945312 18.324219 24.042969 C 18.535156 24.199219 18.765625 24.3125 19.015625 24.382812 C 19.265625 24.457031 19.519531 24.484375 19.78125 24.46875 C 20.039062 24.449219 20.289062 24.390625 20.527344 24.28125 C 20.765625 24.175781 20.976562 24.035156 21.164062 23.851562 C 22.007812 23.0625 26.25 18.925781 27.472656 17.699219 C 33.871094 24.042969 38.558594 28.722656 39.683594 29.878906 C 40.46875 30.683594 41.191406 31.433594 41.191406 31.433594 C 41.695312 31.964844 42.210938 32.507812 42.746094 33.066406 C 43.109375 32.609375 43.515625 32.148438 43.910156 31.675781 C 44.304688 31.195312 44.675781 30.695312 45.015625 30.175781 C 46.191406 28.300781 46.882812 26.261719 47.085938 24.058594 C 47.234375 21.632812 46.734375 19.347656 45.585938 17.207031 C 45.28125 16.59375 44.933594 16.007812 44.550781 15.441406 Z M 27.46875 20.421875 C 25.699219 22.140625 22.957031 24.828125 22.273438 25.429688 C 21.875 25.757812 21.433594 26.007812 20.941406 26.171875 C 20.453125 26.339844 19.953125 26.410156 19.4375 26.390625 C 18.921875 26.367188 18.425781 26.257812 17.953125 26.050781 C 17.476562 25.847656 17.054688 25.5625 16.6875 25.203125 C 16.316406 24.84375 16.023438 24.425781 15.8125 23.957031 C 15.597656 23.484375 15.476562 22.992188 15.449219 22.476562 C 15.421875 21.960938 15.488281 21.457031 15.648438 20.96875 C 15.808594 20.476562 16.054688 20.03125 16.382812 19.632812 C 16.921875 18.992188 17.535156 18.410156 18.132812 17.816406 C 19.609375 16.332031 21.097656 14.851562 22.617188 13.335938 C 21.785156 12.585938 20.871094 11.957031 19.871094 11.453125 C 18.875 10.945312 17.828125 10.582031 16.730469 10.351562 C 15.632812 10.125 14.527344 10.046875 13.410156 10.113281 C 12.292969 10.179688 11.203125 10.390625 10.140625 10.746094 C 4.816406 12.554688 1.726562 16.359375 1.101562 21.960938 C 0.992188 22.863281 0.984375 23.765625 1.078125 24.667969 C 1.167969 25.570312 1.355469 26.453125 1.644531 27.316406 C 1.929688 28.175781 2.308594 28.996094 2.773438 29.773438 C 3.242188 30.550781 3.789062 31.269531 4.414062 31.925781 C 5.28125 31.136719 6.074219 30.390625 6.886719 29.671875 C 7.09375 29.46875 7.328125 29.296875 7.578125 29.152344 C 7.828125 29.007812 8.09375 28.894531 8.375 28.8125 C 8.652344 28.730469 8.9375 28.683594 9.226562 28.671875 C 9.519531 28.660156 9.804688 28.679688 10.089844 28.738281 C 10.375 28.792969 10.652344 28.882812 10.914062 29.003906 C 11.175781 29.128906 11.421875 29.277344 11.648438 29.460938 C 11.875 29.640625 12.078125 29.847656 12.257812 30.078125 C 12.433594 30.308594 12.582031 30.554688 12.699219 30.820312 C 12.902344 31.351562 13.058594 31.894531 13.167969 32.453125 C 15.464844 32.65625 16.71875 33.941406 16.921875 36.257812 C 19.277344 36.46875 20.550781 37.746094 20.738281 40.054688 C 20.804688 40.074219 20.875 40.089844 20.945312 40.101562 C 21.222656 40.109375 21.5 40.148438 21.773438 40.21875 C 22.042969 40.289062 22.304688 40.390625 22.550781 40.523438 C 22.800781 40.652344 23.03125 40.808594 23.242188 40.992188 C 23.457031 41.175781 23.644531 41.378906 23.8125 41.605469 C 23.976562 41.832031 24.117188 42.074219 24.226562 42.332031 C 24.335938 42.589844 24.417969 42.859375 24.46875 43.132812 C 24.515625 43.410156 24.535156 43.6875 24.519531 43.96875 C 24.507812 44.25 24.460938 44.523438 24.382812 44.792969 C 24.347656 44.960938 24.382812 45.113281 24.484375 45.25 C 25.164062 45.949219 25.84375 46.652344 26.574219 47.296875 C 26.875 47.535156 27.222656 47.65625 27.609375 47.652344 C 27.996094 47.648438 28.339844 47.519531 28.640625 47.273438 C 28.847656 47.113281 29.011719 46.917969 29.128906 46.683594 C 29.25 46.449219 29.308594 46.199219 29.316406 45.9375 C 29.320312 45.671875 29.265625 45.421875 29.15625 45.183594 C 29.046875 44.945312 28.890625 44.742188 28.6875 44.574219 C 26.972656 42.859375 25.25 41.152344 23.539062 39.433594 C 23.460938 39.359375 23.394531 39.273438 23.332031 39.183594 L 20.351562 36.203125 C 20.175781 36.019531 20.085938 35.800781 20.089844 35.546875 C 20.089844 35.289062 20.183594 35.074219 20.363281 34.890625 C 20.542969 34.710938 20.761719 34.621094 21.015625 34.617188 C 21.273438 34.617188 21.492188 34.703125 21.675781 34.878906 L 24.671875 37.878906 C 24.753906 37.933594 24.832031 37.996094 24.902344 38.066406 C 25.441406 38.578125 25.984375 39.085938 26.511719 39.609375 C 27.75 40.832031 28.96875 42.070312 30.214844 43.28125 C 30.386719 43.453125 30.582031 43.585938 30.808594 43.675781 C 31.03125 43.765625 31.265625 43.808594 31.507812 43.800781 C 31.75 43.789062 31.980469 43.734375 32.199219 43.625 C 32.417969 43.519531 32.605469 43.375 32.761719 43.1875 C 32.902344 43.011719 33.007812 42.816406 33.078125 42.597656 C 33.144531 42.382812 33.167969 42.160156 33.152344 41.933594 C 33.132812 41.707031 33.074219 41.492188 32.972656 41.289062 C 32.871094 41.085938 32.734375 40.910156 32.566406 40.757812 C 30.816406 38.996094 29.050781 37.25 27.292969 35.496094 C 26.457031 34.660156 25.609375 33.832031 24.792969 32.972656 C 24.699219 32.886719 24.628906 32.789062 24.578125 32.671875 C 24.523438 32.554688 24.5 32.433594 24.5 32.308594 C 24.496094 32.183594 24.523438 32.0625 24.570312 31.945312 C 24.621094 31.828125 24.691406 31.726562 24.785156 31.640625 C 24.96875 31.453125 25.191406 31.359375 25.453125 31.355469 C 25.714844 31.351562 25.941406 31.4375 26.132812 31.617188 C 26.25 31.714844 26.359375 31.820312 26.464844 31.929688 C 28.957031 34.410156 31.4375 36.894531 33.941406 39.359375 C 34.214844 39.628906 34.539062 39.816406 34.90625 39.921875 C 35.273438 40.015625 35.628906 39.984375 35.976562 39.835938 C 36.324219 39.683594 36.585938 39.445312 36.769531 39.113281 C 36.960938 38.777344 37.027344 38.417969 36.976562 38.035156 C 36.925781 37.652344 36.761719 37.324219 36.488281 37.050781 C 34.578125 35.125 32.65625 33.214844 30.734375 31.300781 C 30.050781 30.613281 29.347656 29.9375 28.671875 29.234375 C 28.570312 29.148438 28.492188 29.046875 28.433594 28.929688 C 28.375 28.8125 28.339844 28.6875 28.332031 28.554688 C 28.324219 28.425781 28.34375 28.296875 28.386719 28.171875 C 28.429688 28.050781 28.496094 27.9375 28.585938 27.84375 C 28.679688 27.746094 28.789062 27.671875 28.917969 27.621094 C 29.042969 27.570312 29.171875 27.546875 29.308594 27.546875 C 29.445312 27.546875 29.574219 27.574219 29.699219 27.628906 C 29.824219 27.683594 29.933594 27.757812 30.027344 27.855469 C 30.113281 27.929688 30.1875 28.019531 30.269531 28.097656 C 32.742188 30.566406 35.21875 33.03125 37.699219 35.496094 C 37.941406 35.78125 38.242188 35.972656 38.597656 36.078125 C 38.957031 36.179688 39.3125 36.179688 39.667969 36.074219 L 39.71875 36.054688 C 39.859375 36 39.988281 35.925781 40.109375 35.835938 C 40.230469 35.746094 40.335938 35.640625 40.429688 35.523438 C 40.523438 35.402344 40.601562 35.273438 40.660156 35.136719 C 40.722656 35 40.765625 34.855469 40.785156 34.707031 C 40.808594 34.554688 40.8125 34.40625 40.796875 34.257812 C 40.78125 34.105469 40.746094 33.960938 40.691406 33.820312 C 40.640625 33.679688 40.566406 33.546875 40.480469 33.421875 C 40.390625 33.300781 40.289062 33.191406 40.171875 33.09375 C 37.371094 30.292969 31.046875 23.976562 27.46875 20.421875 Z M 27.46875 20.421875 " fill-opacity="1" fill-rule="nonzero"/></g><g clip-path="url(#40505f172e)"><g transform="matrix(1, 0, 0, 1, 59, -0.000000000000000888)"><g clip-path="url(#e1cef322c2)"><g fill="#f5efe7" fill-opacity="1"><g transform="translate(0.761019, 24.662412)"><g><path d="M 6.9375 0.125 C 5.90625 0.125 4.941406 0 4.046875 -0.25 C 3.148438 -0.507812 2.390625 -0.945312 1.765625 -1.5625 C 1.140625 -2.175781 0.828125 -2.925781 0.828125 -3.8125 L 4.4375 -3.8125 C 4.4375 -2.65625 5.28125 -2.078125 6.96875 -2.078125 C 7.957031 -2.078125 8.644531 -2.191406 9.03125 -2.421875 C 9.414062 -2.648438 9.609375 -3.054688 9.609375 -3.640625 C 9.609375 -3.785156 9.578125 -3.921875 9.515625 -4.046875 C 9.460938 -4.171875 9.351562 -4.285156 9.1875 -4.390625 C 9.03125 -4.492188 8.890625 -4.570312 8.765625 -4.625 C 8.640625 -4.6875 8.4375 -4.753906 8.15625 -4.828125 C 7.882812 -4.898438 7.675781 -4.945312 7.53125 -4.96875 C 7.382812 -5 7.144531 -5.050781 6.8125 -5.125 C 6.625 -5.164062 6.476562 -5.195312 6.375 -5.21875 C 5.675781 -5.34375 5.125 -5.453125 4.71875 -5.546875 C 4.320312 -5.648438 3.835938 -5.8125 3.265625 -6.03125 C 2.691406 -6.25 2.25 -6.484375 1.9375 -6.734375 C 1.632812 -6.984375 1.363281 -7.328125 1.125 -7.765625 C 0.894531 -8.203125 0.78125 -8.695312 0.78125 -9.25 C 0.78125 -10.382812 1.179688 -11.273438 1.984375 -11.921875 C 2.929688 -12.648438 4.410156 -13.015625 6.421875 -13.015625 C 7.453125 -13.015625 8.394531 -12.878906 9.25 -12.609375 C 10.113281 -12.347656 10.835938 -11.910156 11.421875 -11.296875 C 12.015625 -10.691406 12.3125 -9.945312 12.3125 -9.0625 L 8.703125 -9.0625 C 8.703125 -9.6875 8.515625 -10.132812 8.140625 -10.40625 C 7.773438 -10.675781 7.207031 -10.8125 6.4375 -10.8125 C 5.5625 -10.8125 4.90625 -10.6875 4.46875 -10.4375 C 4.03125 -10.1875 3.8125 -9.84375 3.8125 -9.40625 C 3.8125 -9.15625 3.894531 -8.9375 4.0625 -8.75 C 4.238281 -8.5625 4.492188 -8.40625 4.828125 -8.28125 C 5.171875 -8.15625 5.5 -8.050781 5.8125 -7.96875 C 6.125 -7.894531 6.53125 -7.804688 7.03125 -7.703125 C 7.101562 -7.691406 7.148438 -7.679688 7.171875 -7.671875 C 7.203125 -7.660156 7.25 -7.648438 7.3125 -7.640625 C 7.375 -7.640625 7.425781 -7.632812 7.46875 -7.625 C 8.164062 -7.476562 8.78125 -7.316406 9.3125 -7.140625 C 9.851562 -6.972656 10.394531 -6.75 10.9375 -6.46875 C 11.476562 -6.1875 11.894531 -5.828125 12.1875 -5.390625 C 12.488281 -4.953125 12.640625 -4.453125 12.640625 -3.890625 C 12.640625 -2.609375 12.222656 -1.644531 11.390625 -1 C 10.441406 -0.25 8.957031 0.125 6.9375 0.125 Z M 6.9375 0.125 "/></g></g></g><g fill="#f5efe7" fill-opacity="1"><g transform="translate(13.103292, 24.662412)"><g><path d="M 3.84375 0.125 C 2.96875 0.125 2.207031 -0.113281 1.5625 -0.59375 C 0.914062 -1.070312 0.59375 -1.769531 0.59375 -2.6875 C 0.59375 -3.34375 0.800781 -3.890625 1.21875 -4.328125 C 1.644531 -4.773438 2.234375 -5.09375 2.984375 -5.28125 C 3.742188 -5.46875 4.460938 -5.59375 5.140625 -5.65625 C 5.816406 -5.726562 6.597656 -5.765625 7.484375 -5.765625 C 7.484375 -6.359375 7.320312 -6.773438 7 -7.015625 C 6.6875 -7.253906 6.238281 -7.375 5.65625 -7.375 C 4.457031 -7.375 3.835938 -7.0625 3.796875 -6.4375 L 1.140625 -6.4375 C 1.453125 -8.476562 2.910156 -9.5 5.515625 -9.5 C 7.304688 -9.5 8.570312 -9.140625 9.3125 -8.421875 C 10.0625 -7.710938 10.4375 -6.601562 10.4375 -5.09375 L 10.4375 0 L 7.6875 0 L 7.484375 -1.03125 C 6.867188 -0.257812 5.65625 0.125 3.84375 0.125 Z M 5.40625 -1.984375 C 5.65625 -1.984375 6 -2.054688 6.4375 -2.203125 C 6.875 -2.347656 7.222656 -2.53125 7.484375 -2.75 L 7.484375 -3.96875 C 6.523438 -3.96875 5.625 -3.875 4.78125 -3.6875 C 3.9375 -3.507812 3.515625 -3.210938 3.515625 -2.796875 C 3.515625 -2.253906 4.144531 -1.984375 5.40625 -1.984375 Z M 5.40625 -1.984375 "/></g></g></g><g fill="#f5efe7" fill-opacity="1"><g transform="translate(23.243018, 24.662412)"><g><path d="M 1.109375 0 L 1.109375 -9.28125 L 3.953125 -9.28125 L 4.078125 -8.40625 C 4.773438 -9.132812 5.671875 -9.5 6.765625 -9.5 C 7.316406 -9.5 7.84375 -9.332031 8.34375 -9 C 8.851562 -8.675781 9.257812 -8.238281 9.5625 -7.6875 C 10.144531 -8.894531 11.300781 -9.5 13.03125 -9.5 C 15.675781 -9.5 17 -8.070312 17 -5.21875 L 17 0 L 14.0625 0 L 14.0625 -5.40625 C 14.0625 -6.71875 13.492188 -7.375 12.359375 -7.375 C 11.753906 -7.375 11.300781 -7.132812 11 -6.65625 C 10.707031 -6.1875 10.5625 -5.617188 10.5625 -4.953125 L 10.5625 0 L 7.59375 0 L 7.59375 -5.40625 C 7.59375 -5.976562 7.4375 -6.445312 7.125 -6.8125 C 6.8125 -7.1875 6.398438 -7.375 5.890625 -7.375 C 5.335938 -7.375 4.894531 -7.132812 4.5625 -6.65625 C 4.238281 -6.1875 4.078125 -5.617188 4.078125 -4.953125 L 4.078125 0 Z M 1.109375 0 "/></g></g></g><g fill="#f5efe7" fill-opacity="1"><g transform="translate(40.055821, 24.662412)"><g><path d="M 7.734375 0.125 C 6.054688 0.125 4.832031 -0.269531 4.0625 -1.0625 L 3.890625 0 L 1.109375 0 L 1.109375 -12.765625 L 4.0625 -12.765625 L 4.0625 -8.375 C 4.832031 -9.125 5.910156 -9.5 7.296875 -9.5 C 8.691406 -9.5 9.773438 -9.0625 10.546875 -8.1875 C 11.328125 -7.320312 11.71875 -6.164062 11.71875 -4.71875 C 11.71875 -3.375 11.34375 -2.226562 10.59375 -1.28125 C 9.84375 -0.34375 8.890625 0.125 7.734375 0.125 Z M 6.59375 -1.984375 C 7.21875 -1.984375 7.738281 -2.238281 8.15625 -2.75 C 8.570312 -3.257812 8.78125 -3.914062 8.78125 -4.71875 L 8.78125 -4.953125 C 8.78125 -5.796875 8.554688 -6.410156 8.109375 -6.796875 C 7.660156 -7.179688 7.085938 -7.375 6.390625 -7.375 C 5.796875 -7.375 5.257812 -7.1875 4.78125 -6.8125 C 4.300781 -6.445312 4.0625 -5.992188 4.0625 -5.453125 L 4.0625 -4 C 4.0625 -3.425781 4.3125 -2.945312 4.8125 -2.5625 C 5.3125 -2.175781 5.90625 -1.984375 6.59375 -1.984375 Z M 6.59375 -1.984375 "/></g></g></g><g fill="#f5efe7" fill-opacity="1"><g transform="translate(51.373147, 24.662412)"><g><path d="M 4.953125 0.125 C 3.671875 0.125 2.671875 -0.234375 1.953125 -0.953125 C 1.242188 -1.671875 0.890625 -2.6875 0.890625 -4 L 0.890625 -9.28125 L 3.84375 -9.28125 L 3.84375 -4.328125 C 3.84375 -3.460938 4.007812 -2.851562 4.34375 -2.5 C 4.675781 -2.15625 5.171875 -1.984375 5.828125 -1.984375 C 6.347656 -1.984375 6.847656 -2.195312 7.328125 -2.625 C 7.804688 -3.0625 8.046875 -3.546875 8.046875 -4.078125 L 8.046875 -9.28125 L 11 -9.28125 L 11 0 L 8.234375 0 L 8.046875 -0.953125 C 7.347656 -0.234375 6.316406 0.125 4.953125 0.125 Z M 4.953125 0.125 "/></g></g></g><g fill="#f5efe7" fill-opacity="1"><g transform="translate(62.406979, 24.662412)"><g><path d="M 1.109375 0 L 1.109375 -9.28125 L 3.890625 -9.28125 L 4.0625 -8.40625 C 4.757812 -9.132812 5.789062 -9.5 7.15625 -9.5 C 8.4375 -9.5 9.429688 -9.132812 10.140625 -8.40625 C 10.859375 -7.6875 11.21875 -6.675781 11.21875 -5.375 L 11.21875 0 L 8.265625 0 L 8.265625 -5.046875 C 8.265625 -5.898438 8.097656 -6.5 7.765625 -6.84375 C 7.429688 -7.195312 6.9375 -7.375 6.28125 -7.375 C 5.75 -7.375 5.242188 -7.160156 4.765625 -6.734375 C 4.296875 -6.316406 4.0625 -5.832031 4.0625 -5.28125 L 4.0625 0 Z M 1.109375 0 "/></g></g></g><g fill="#f5efe7" fill-opacity="1"><g transform="translate(73.440811, 24.662412)"><g><path d="M 6 4.4375 C 4.8125 4.4375 3.742188 4.132812 2.796875 3.53125 C 1.859375 2.925781 1.304688 2.226562 1.140625 1.4375 L 4.328125 1.4375 C 4.515625 1.789062 4.75 2.023438 5.03125 2.140625 C 5.3125 2.253906 5.679688 2.3125 6.140625 2.3125 C 7.609375 2.3125 8.34375 1.582031 8.34375 0.125 L 8.34375 -1.0625 C 7.570312 -0.269531 6.347656 0.125 4.671875 0.125 C 3.503906 0.125 2.546875 -0.34375 1.796875 -1.28125 C 1.046875 -2.226562 0.671875 -3.375 0.671875 -4.71875 C 0.671875 -6.164062 1.054688 -7.320312 1.828125 -8.1875 C 2.597656 -9.0625 3.6875 -9.5 5.09375 -9.5 C 6.507812 -9.5 7.59375 -9.125 8.34375 -8.375 L 8.515625 -9.28125 L 11.28125 -9.28125 L 11.28125 -0.640625 C 11.28125 1.097656 10.875 2.378906 10.0625 3.203125 C 9.257812 4.023438 7.90625 4.4375 6 4.4375 Z M 5.8125 -1.984375 C 6.488281 -1.984375 7.078125 -2.175781 7.578125 -2.5625 C 8.085938 -2.945312 8.34375 -3.425781 8.34375 -4 L 8.34375 -5.453125 C 8.34375 -6.003906 8.101562 -6.460938 7.625 -6.828125 C 7.15625 -7.191406 6.613281 -7.375 6 -7.375 C 5.300781 -7.375 4.726562 -7.179688 4.28125 -6.796875 C 3.84375 -6.410156 3.625 -5.796875 3.625 -4.953125 L 3.625 -4.71875 C 3.625 -3.914062 3.832031 -3.257812 4.25 -2.75 C 4.675781 -2.238281 5.195312 -1.984375 5.8125 -1.984375 Z M 5.8125 -1.984375 "/></g></g></g><g fill="#f5efe7" fill-opacity="1"><g transform="translate(0.761019, 43.333638)"><g><path d="M 0.234375 0 L 4.546875 -12.765625 L 9.4375 -12.765625 L 13.703125 0 L 10.609375 0 L 9.71875 -2.6875 L 4.25 -2.6875 L 3.34375 0 Z M 5.015625 -4.984375 L 8.921875 -4.984375 L 6.984375 -10.78125 Z M 5.015625 -4.984375 "/></g></g></g><g fill="#f5efe7" fill-opacity="1"><g transform="translate(13.626671, 43.333638)"><g><path d="M 5.375 0.125 C 2.707031 0.125 1.140625 -0.816406 0.671875 -2.703125 L 3.609375 -2.703125 C 3.910156 -2.117188 4.460938 -1.828125 5.265625 -1.828125 C 6.410156 -1.828125 6.984375 -2.113281 6.984375 -2.6875 C 6.984375 -2.9375 6.785156 -3.109375 6.390625 -3.203125 C 5.953125 -3.328125 5.445312 -3.4375 4.875 -3.53125 C 2.113281 -4 0.734375 -4.984375 0.734375 -6.484375 C 0.734375 -8.492188 2.195312 -9.5 5.125 -9.5 C 7.613281 -9.5 9.09375 -8.550781 9.5625 -6.65625 L 6.609375 -6.65625 C 6.523438 -6.875 6.4375 -7.035156 6.34375 -7.140625 C 6.257812 -7.242188 6.117188 -7.332031 5.921875 -7.40625 C 5.722656 -7.488281 5.457031 -7.53125 5.125 -7.53125 C 4.164062 -7.53125 3.6875 -7.238281 3.6875 -6.65625 C 3.6875 -6.550781 3.722656 -6.445312 3.796875 -6.34375 C 3.878906 -6.25 4.003906 -6.164062 4.171875 -6.09375 C 4.347656 -6.019531 4.519531 -5.953125 4.6875 -5.890625 C 4.851562 -5.835938 5.0625 -5.78125 5.3125 -5.71875 C 5.570312 -5.65625 5.789062 -5.601562 5.96875 -5.5625 C 6.15625 -5.53125 6.378906 -5.488281 6.640625 -5.4375 C 6.910156 -5.394531 7.101562 -5.363281 7.21875 -5.34375 C 9.03125 -4.96875 9.9375 -4.179688 9.9375 -2.984375 C 9.9375 -1.992188 9.535156 -1.226562 8.734375 -0.6875 C 7.929688 -0.144531 6.8125 0.125 5.375 0.125 Z M 5.375 0.125 "/></g></g></g><g fill="#f5efe7" fill-opacity="1"><g transform="translate(23.046757, 43.333638)"><g><path d="M 3.84375 0.125 C 2.96875 0.125 2.207031 -0.113281 1.5625 -0.59375 C 0.914062 -1.070312 0.59375 -1.769531 0.59375 -2.6875 C 0.59375 -3.34375 0.800781 -3.890625 1.21875 -4.328125 C 1.644531 -4.773438 2.234375 -5.09375 2.984375 -5.28125 C 3.742188 -5.46875 4.460938 -5.59375 5.140625 -5.65625 C 5.816406 -5.726562 6.597656 -5.765625 7.484375 -5.765625 C 7.484375 -6.359375 7.320312 -6.773438 7 -7.015625 C 6.6875 -7.253906 6.238281 -7.375 5.65625 -7.375 C 4.457031 -7.375 3.835938 -7.0625 3.796875 -6.4375 L 1.140625 -6.4375 C 1.453125 -8.476562 2.910156 -9.5 5.515625 -9.5 C 7.304688 -9.5 8.570312 -9.140625 9.3125 -8.421875 C 10.0625 -7.710938 10.4375 -6.601562 10.4375 -5.09375 L 10.4375 0 L 7.6875 0 L 7.484375 -1.03125 C 6.867188 -0.257812 5.65625 0.125 3.84375 0.125 Z M 5.40625 -1.984375 C 5.65625 -1.984375 6 -2.054688 6.4375 -2.203125 C 6.875 -2.347656 7.222656 -2.53125 7.484375 -2.75 L 7.484375 -3.96875 C 6.523438 -3.96875 5.625 -3.875 4.78125 -3.6875 C 3.9375 -3.507812 3.515625 -3.210938 3.515625 -2.796875 C 3.515625 -2.253906 4.144531 -1.984375 5.40625 -1.984375 Z M 5.40625 -1.984375 "/></g></g></g></g></g></g></g></g></g></svg>